<svg width="36" height="36" viewBox="0 0 36 36" fill="none" xmlns="http://www.w3.org/2000/svg">
<g clip-path="url(#clip0_2_27)">
<path fill-rule="evenodd" clip-rule="evenodd" d="M36 36H0V0H36V36ZM28.2885 26.5005C29.2335 26.5005 30 25.7325 30 24.7875V11.2125C30 10.2675 29.2335 9.4995 28.2885 9.4995H7.7115C6.7665 9.4995 6 10.2675 6 11.2125V24.7875C6 25.7325 6.7665 26.5005 7.7115 26.5005H28.2885ZM18 20.4135L8.658 13.932L8.637 25.5H27.3225V13.932L18 20.4135ZM26.8695 10.5C24.252 12.3225 18 16.7295 18 16.7295L9.0795 10.5H26.8695Z" fill="#535351"/>
</g>
<defs>
<clipPath id="clip0_2_27">
<rect width="36" height="36" fill="white"/>
</clipPath>
</defs>
</svg>
